<svg width="18" height="12" viewBox="0 0 18 12" fill="none" xmlns="http://www.w3.org/2000/svg">
<path d="M16.994 2.00235C16.899 1.65018 16.7136 1.32902 16.4559 1.07082C16.1983 0.81262 15.8776 0.6264 15.5256 0.53068C14.2206 0.17235 8.99979 0.16651 8.99979 0.16651C8.99979 0.16651 3.77979 0.160681 2.47396 0.503181C2.12223 0.603301 1.80214 0.792161 1.54443 1.05162C1.28671 1.31109 1.10003 1.63245 1.00229 1.98485C0.658116 3.28985 0.654786 5.99651 0.654786 5.99651C0.654786 5.99651 0.651456 8.71648 0.993116 10.0082C1.18479 10.7224 1.74729 11.2865 2.46229 11.479C3.78062 11.8374 8.98729 11.8432 8.98729 11.8432C8.98729 11.8432 14.2081 11.849 15.5131 11.5074C15.8652 11.4118 16.1863 11.226 16.4445 10.9683C16.7028 10.7107 16.8893 10.3901 16.9856 10.0382C17.3306 8.73398 17.3331 6.02818 17.3331 6.02818C17.3331 6.02818 17.3498 3.30735 16.994 2.00235ZM7.32979 8.50398L7.33396 3.50401L11.6731 6.00818L7.32979 8.50398Z" fill="#F67ACB"/>
</svg>
